<?xml version="1.0" standalone="no"?>
<!DOCTYPE svg PUBLIC "-//W3C//DTD SVG 20010904//EN"
 "http://www.w3.org/TR/2001/REC-SVG-20010904/DTD/svg10.dtd">
<svg version="1.0" xmlns="http://www.w3.org/2000/svg"
 width="512.000000pt" height="512.000000pt" viewBox="0 0 512.000000 512.000000"
 preserveAspectRatio="xMidYMid meet">

<g transform="translate(0.000000,512.000000) scale(0.100000,-0.100000)"
fill="#000000" stroke="none">
<path d="M1013 4050 c-76 -11 -229 -97 -300 -170 -90 -90 -108 -168 -83 -352
13 -90 42 -163 99 -246 23 -35 41 -64 39 -65 -1 -1 -29 -15 -61 -31 -70 -35
-85 -57 -62 -92 19 -30 43 -30 98 -2 80 41 132 49 235 36 100 -13 125 -8 130
29 3 17 23 25 128 52 142 35 196 66 275 154 27 30 62 84 79 119 26 55 30 74
30 149 0 128 -24 189 -103 263 -52 49 -162 115 -194 116 -4 0 -30 12 -58 25
-53 26 -139 31 -252 15z m257 -126 c47 -19 94 -39 105 -44 34 -14 114 -97 130
-136 23 -56 20 -175 -6 -227 -28 -55 -102 -136 -149 -164 -52 -31 -325 -96
-409 -97 -56 -1 -89 22 -136 92 -57 85 -74 141 -81 259 -7 118 -2 140 50 195
59 62 190 137 261 149 97 16 148 10 235 -27z"/>
<path d="M3930 3925 c-19 -7 -69 -20 -110 -30 -41 -9 -102 -29 -135 -44 -33
-16 -74 -33 -92 -39 -56 -19 -143 -91 -164 -136 -23 -51 -26 -199 -5 -296 18
-81 105 -268 153 -326 33 -41 39 -44 84 -44 43 0 49 -3 49 -20 0 -37 36 -43
166 -26 65 8 157 18 204 22 47 4 100 13 118 20 18 7 63 20 100 29 37 9 92 27
122 39 30 13 77 31 103 41 65 23 179 136 214 210 24 53 25 63 21 203 -3 128
-6 152 -25 188 -38 72 -146 145 -290 195 -79 28 -86 29 -280 28 -141 0 -208
-4 -233 -14z m465 -102 c92 -30 211 -98 240 -138 17 -22 21 -45 23 -148 2 -71
-1 -137 -7 -159 -15 -49 -113 -148 -171 -172 -25 -10 -65 -27 -90 -37 -25 -11
-74 -26 -110 -35 -36 -8 -81 -21 -100 -28 -19 -8 -70 -17 -113 -21 -73 -6 -80
-5 -93 14 -18 24 -62 27 -212 11 -91 -10 -94 -9 -113 12 -11 13 -27 39 -35 58
-9 19 -31 65 -49 102 -41 80 -58 171 -53 279 3 76 5 83 33 105 17 13 50 33 75
45 25 11 63 30 85 41 47 26 235 77 320 87 33 5 112 9 175 9 100 2 125 -1 195
-25z"/>
<path d="M1192 2058 c-15 -15 -16 -135 -2 -209 29 -156 120 -423 176 -517 93
-156 226 -259 394 -304 150 -40 201 -48 323 -48 107 0 109 0 149 33 22 17 101
102 175 187 84 96 149 162 172 173 48 24 190 18 276 -12 33 -11 118 -29 188
-41 115 -19 159 -21 450 -18 l322 4 106 35 c190 65 200 74 355 314 66 102 75
138 43 158 -35 22 -63 0 -124 -98 -33 -53 -72 -112 -87 -132 -16 -20 -28 -39
-28 -44 0 -19 -97 -72 -180 -99 -143 -46 -224 -54 -494 -47 -254 7 -397 24
-533 67 -39 13 -109 24 -166 27 -90 6 -102 4 -162 -22 -59 -25 -74 -38 -163
-144 -55 -64 -129 -147 -165 -185 l-67 -68 -92 7 c-99 8 -126 12 -258 45 -108
28 -179 68 -257 147 -76 78 -109 136 -161 278 -73 202 -102 322 -102 431 0 76
-9 94 -50 94 -14 0 -31 -5 -38 -12z"/>
</g>
</svg>
